<svg width="28" height="28" viewBox="0 0 28 28" fill="none" xmlns="http://www.w3.org/2000/svg">
<path d="M7.03403 15.8364L15.3003 24.1027C15.6671 24.4704 15.8521 24.9046 15.8553 25.4053C15.8585 25.9061 15.6767 26.3421 15.31 26.7134C14.9432 27.0768 14.5076 27.2569 14.0031 27.2537C13.4985 27.2504 13.061 27.0655 12.6904 26.6987L1.30149 15.3098C1.11766 15.1233 0.978407 14.9171 0.883741 14.6914C0.789046 14.4657 0.741699 14.2346 0.741699 13.9983C0.741699 13.7619 0.789046 13.5312 0.883741 13.3063C0.978407 13.0814 1.11766 12.876 1.30149 12.6902L12.7139 1.27775C13.0924 0.915028 13.528 0.733665 14.0207 0.733665C14.5135 0.733665 14.9432 0.915028 15.31 1.27775C15.6767 1.65497 15.8601 2.09222 15.8601 2.5895C15.8601 3.08681 15.6767 3.51953 15.31 3.88767L7.03403 12.1636H26.1566C26.6738 12.1636 27.1118 12.3401 27.4706 12.6929C27.8293 13.0458 28.0087 13.4815 28.0087 14C28.0087 14.5185 27.8293 14.9542 27.4706 15.3071C27.1118 15.6599 26.6738 15.8364 26.1566 15.8364H7.03403Z" fill="#1C1B1F"/>
</svg>
